<?xml version="1.0" encoding="UTF-8"?>
<svg width="16px" height="16px" viewBox="0 0 16 16" version="1.1" xmlns="http://www.w3.org/2000/svg" xmlns:xlink="http://www.w3.org/1999/xlink">
    <title>icon_Lane_arrow_right</title>
    <g id="icon_Lane_arrow_right" stroke="none" stroke-width="1" fill="none" fill-rule="evenodd">
        <rect id="矩形" fill="#D8D8D8" opacity="0" x="0" y="0.5" width="16" height="16"></rect>
        <path d="M5.57247917,7.05096371 L5.57247917,16 C5.57247917,16.2761424 5.79633679,16.5 6.07247917,16.5 L10.3123073,16.5 C10.5884496,16.5 10.8123073,16.2761424 10.8123073,16 L10.8123073,7.05096371 L10.8123073,7.05096371 L12.3920258,7.05096371 C12.6681682,7.05096371 12.8920258,6.82710608 12.8920258,6.55096371 C12.8920258,6.43744301 12.8533957,6.32730145 12.7824876,6.23865046 L8.58285503,0.988165098 C8.41036918,0.772518991 8.09572607,0.737530688 7.88007996,0.910016536 C7.85122267,0.933098216 7.82501308,0.959307806 7.8019314,0.988165098 L3.60229881,6.23865046 C3.42981296,6.45429656 3.46480126,6.76893968 3.68044737,6.94142553 C3.76909837,7.01233356 3.87923993,7.05096371 3.99276063,7.05096371 L5.57247917,7.05096371 L5.57247917,7.05096371 Z" id="路径" fill="#FFFFFF" fill-rule="nonzero" opacity="0.5" transform="translate(8.192393, 8.500000) rotate(-270.000000) translate(-8.192393, -8.500000) "></path>
    </g>
</svg>